<svg width="76" height="80" viewBox="0 0 76 80" fill="none" xmlns="http://www.w3.org/2000/svg">
<rect x="15" y="15" width="41" height="50" fill="white"/>
<path fill-rule="evenodd" clip-rule="evenodd" d="M75.662 19.9928L37.831 0L0 19.9928V59.9783L37.831 79.9711L75.662 59.9783V19.9928ZM20.6147 25.291C20.6147 22.7458 21.958 20.479 24.0085 19.2526C24.7224 18.8256 25.522 18.5248 26.3805 18.3822L40.164 16.0929C43.0353 15.616 45.725 17.017 47.1285 19.3392H49.0489C52.844 19.3392 55.9205 22.4732 55.9205 26.3392V56.2296C55.9205 60.0956 52.844 63.2296 49.0489 63.2296H27.4862C23.6912 63.2296 20.6147 60.0956 20.6147 56.2296V54.545V26.3392V25.291ZM31.9037 49C31.0905 49 30.4312 49.6716 30.4312 50.5C30.4312 51.3284 31.0905 52 31.9037 52H42.7018C43.515 52 44.1743 51.3284 44.1743 50.5C44.1743 49.6716 43.515 49 42.7018 49H31.9037ZM36.3462 32.9572C35.0744 31.6764 33.0243 31.681 31.7581 32.9708C30.4873 34.2653 30.4873 36.364 31.7581 37.6585L32.7112 38.6293L35.0119 40.9731L37.3128 43.3169L39.6136 40.9731L41.9146 38.6291L42.8675 37.6583C44.138 36.3638 44.138 34.2652 42.8673 32.9708C41.6011 31.6809 39.5509 31.6764 38.2792 32.9572L38.2658 32.9708L37.3156 33.9387L37.3128 33.9417L36.3462 32.9572Z" fill="#CD5EA1"/>
</svg>
